<svg width="104.52" height="38.224" version="1.1" viewBox="0 0 104.52 38.224" xmlns="http://www.w3.org/2000/svg">
 <path d="m62.693 8.6526c-2.7432-2.7432-5.9999-4.9193-9.584-6.4039-3.5842-1.4846-7.4256-2.2487-11.305-2.2487s-7.7209 0.7641-11.305 2.2487c-3.5841 1.4846-6.8408 3.6607-9.584 6.4039l20.889 20.889z" fill="#ffd200"/>
 <path d="m41.83 29.572c2.7432 2.7432 5.9998 4.9192 9.584 6.4038 3.5841 1.4846 7.4256 2.2487 11.305 2.2487 3.8793 0 7.7213-0.7641 11.305-2.2487s6.841-3.6606 9.584-6.4038l-20.889-20.889z" fill="#06e07f"/>
 <path d="m41.778 29.567c-2.7432 2.7432-5.9999 4.9192-9.584 6.4038-3.5842 1.4846-7.4256 2.2487-11.305 2.2487s-7.7209-0.7641-11.305-2.2487c-3.5841-1.4846-6.8408-3.6606-9.584-6.4038l20.889-20.889z" fill="#e3073c"/>
 <path d="m62.744 8.6572c2.7429-2.7432 5.9999-4.9192 9.5839-6.4038s7.426-2.2487 11.305-2.2487c3.88 0 7.721 0.7641 11.305 2.2487 3.584 1.4846 6.841 3.6606 9.584 6.4038l-20.889 20.889z" fill="#1f84ef"/>
</svg>
